<svg xmlns="http://www.w3.org/2000/svg" viewBox="0 0 64 64" role="img" aria-label="AS">
  <rect width="64" height="64" rx="12" fill="#0d0c0e"/>
  <circle cx="32" cy="32" r="22" fill="none" stroke="#e0a857" stroke-width="3"/>
  <path d="M20 43 31 18l11 25h-6l-2-5H28l-2 5h-6Zm10-10h2l-1-3-1 3Z" fill="#ece4d3"/>
  <path d="M43 25c-2-2-5-3-8-3-4 0-7 2-7 5 0 7 14 4 14 10 0 3-3 5-8 5-4 0-7-1-10-4l3-4c2 2 5 3 8 3 2 0 3-1 3-2 0-3-14-2-14-9 0-5 4-8 11-8 4 0 8 1 11 4l-3 3Z" fill="#e0a857" opacity=".92"/>
</svg>
